<?xml version="1.0" encoding="UTF-8" standalone="no"?><svg xmlns="http://www.w3.org/2000/svg" xmlns:xlink="http://www.w3.org/1999/xlink" width="1366" zoomAndPan="magnify" viewBox="0 0 1024.5 245.249991" height="768" preserveAspectRatio="xMidYMid meet" version="1.0"><path fill="#006217" d="M 30.171875 98.808594 C 20.125 97.953125 12.242188 94.636719 6.507812 88.84375 C 4.351562 86.664062 4.722656 82.792969 6.90625 80.632812 L 18.390625 69.261719 C 20.574219 67.097656 23.695312 67.507812 25.890625 69.648438 C 27.460938 71.171875 29.101562 72.316406 30.820312 73.070312 C 33.570312 74.285156 38.761719 74.386719 41.347656 72.859375 C 42.386719 72.242188 44.957031 69.707031 46.054688 66.808594 C 46.660156 65.214844 47.394531 61.339844 47.980469 58.257812 L 52.914062 32.351562 C 52.976562 32.015625 53.007812 31.671875 53 31.328125 C 52.988281 30.980469 52.945312 30.640625 52.867188 30.308594 C 52.785156 29.972656 52.671875 29.652344 52.523438 29.34375 C 52.375 29.035156 52.195312 28.746094 51.984375 28.480469 C 51.777344 28.214844 51.542969 27.972656 51.28125 27.761719 C 51.019531 27.550781 50.742188 27.367188 50.441406 27.222656 C 50.144531 27.074219 49.835938 26.960938 49.511719 26.886719 C 49.191406 26.8125 48.863281 26.773438 48.535156 26.773438 L 28.804688 26.773438 C 28.476562 26.773438 28.148438 26.734375 27.828125 26.660156 C 27.507812 26.585938 27.195312 26.472656 26.898438 26.324219 C 26.601562 26.175781 26.324219 25.996094 26.0625 25.785156 C 25.804688 25.574219 25.570312 25.332031 25.359375 25.066406 C 25.152344 24.800781 24.972656 24.511719 24.824219 24.203125 C 24.679688 23.894531 24.566406 23.574219 24.484375 23.238281 C 24.40625 22.90625 24.363281 22.566406 24.355469 22.222656 C 24.347656 21.875 24.378906 21.535156 24.445312 21.199219 L 26.917969 8.4375 C 27.070312 7.652344 27.34375 6.914062 27.742188 6.226562 C 28.136719 5.542969 28.632812 4.945312 29.226562 4.433594 C 29.820312 3.925781 30.480469 3.539062 31.203125 3.269531 C 31.925781 3 32.671875 2.863281 33.441406 2.863281 L 83.101562 2.863281 C 83.429688 2.863281 83.757812 2.902344 84.078125 2.976562 C 84.402344 3.054688 84.710938 3.164062 85.007812 3.3125 C 85.308594 3.460938 85.585938 3.640625 85.847656 3.851562 C 86.105469 4.066406 86.339844 4.304688 86.550781 4.570312 C 86.761719 4.835938 86.9375 5.125 87.085938 5.433594 C 87.234375 5.742188 87.347656 6.0625 87.429688 6.398438 C 87.507812 6.734375 87.554688 7.074219 87.5625 7.417969 C 87.570312 7.761719 87.539062 8.105469 87.476562 8.441406 L 78.300781 56.390625 C 77.710938 59.472656 76.785156 64.476562 76.007812 67.511719 C 73.976562 75.417969 71.042969 81.742188 67.203125 86.476562 C 65.265625 88.867188 61.445312 92.109375 58.824219 93.636719 C 53.898438 96.511719 47.972656 98.234375 41.046875 98.816406 C 38.050781 99.066406 33.167969 99.066406 30.171875 98.808594 Z M 30.171875 98.808594 " fill-opacity="1" fill-rule="nonzero"/><path fill="#006217" d="M 135.050781 99.035156 C 125.890625 99.035156 117.855469 97.265625 110.945312 93.746094 C 104.058594 90.222656 98.742188 85.277344 95 78.902344 C 91.28125 72.535156 89.429688 65.238281 89.429688 56.992188 C 89.429688 46.058594 91.855469 36.328125 96.703125 27.796875 C 101.546875 19.242188 108.265625 12.585938 116.855469 7.839844 C 125.464844 3.109375 135.222656 0.730469 146.105469 0.730469 C 155.289062 0.730469 163.324219 2.496094 170.214844 6.019531 C 177.101562 9.550781 182.394531 14.496094 186.117188 20.863281 C 189.855469 27.238281 191.726562 34.539062 191.726562 42.773438 C 191.726562 53.703125 189.304688 63.457031 184.457031 72.015625 C 179.632812 80.546875 172.914062 87.191406 164.304688 91.921875 C 155.683594 96.667969 145.9375 99.035156 135.050781 99.035156 Z M 137.644531 73.390625 C 142.429688 73.390625 146.59375 72.101562 150.144531 69.523438 C 153.71875 66.925781 156.4375 63.425781 158.308594 59.035156 C 160.199219 54.625 161.15625 49.828125 161.15625 44.636719 C 161.15625 39.105469 159.585938 34.671875 156.4375 31.351562 C 153.3125 28.039062 149.019531 26.375 143.554688 26.375 C 138.730469 26.375 134.542969 27.683594 130.96875 30.285156 C 127.421875 32.863281 124.699219 36.359375 122.808594 40.773438 C 120.9375 45.160156 120 49.949219 120 55.125 C 120 60.671875 121.550781 65.101562 124.675781 68.414062 C 127.824219 71.734375 132.140625 73.390625 137.644531 73.390625 Z M 137.644531 73.390625 " fill-opacity="1" fill-rule="nonzero"/><path fill="#006217" d="M 299 8.441406 L 283.148438 91.324219 C 282.996094 92.109375 282.722656 92.847656 282.328125 93.535156 C 281.933594 94.222656 281.441406 94.820312 280.847656 95.328125 C 280.253906 95.835938 279.597656 96.226562 278.875 96.496094 C 278.152344 96.765625 277.40625 96.902344 276.636719 96.902344 L 257.164062 96.902344 C 256.835938 96.902344 256.511719 96.863281 256.1875 96.785156 C 255.867188 96.710938 255.558594 96.601562 255.257812 96.453125 C 254.960938 96.304688 254.683594 96.125 254.421875 95.914062 C 254.164062 95.699219 253.929688 95.460938 253.71875 95.195312 C 253.511719 94.925781 253.332031 94.640625 253.1875 94.332031 C 253.039062 94.023438 252.925781 93.703125 252.847656 93.367188 C 252.765625 93.03125 252.722656 92.691406 252.714844 92.347656 C 252.710938 92.003906 252.738281 91.664062 252.804688 91.324219 L 257.359375 67.8125 C 257.425781 67.472656 257.457031 67.132812 257.449219 66.789062 C 257.441406 66.445312 257.398438 66.105469 257.320312 65.769531 C 257.238281 65.4375 257.125 65.113281 256.976562 64.804688 C 256.832031 64.496094 256.652344 64.210938 256.445312 63.945312 C 256.234375 63.675781 256 63.4375 255.742188 63.226562 C 255.480469 63.011719 255.203125 62.832031 254.90625 62.683594 C 254.605469 62.539062 254.296875 62.425781 253.976562 62.351562 C 253.652344 62.273438 253.328125 62.238281 253 62.238281 L 235.863281 62.238281 C 235.097656 62.238281 234.351562 62.371094 233.628906 62.640625 C 232.90625 62.910156 232.246094 63.300781 231.652344 63.808594 C 231.058594 64.316406 230.5625 64.914062 230.164062 65.601562 C 229.769531 66.289062 229.492188 67.023438 229.339844 67.8125 L 224.785156 91.324219 C 224.632812 92.113281 224.359375 92.847656 223.960938 93.535156 C 223.566406 94.222656 223.070312 94.820312 222.476562 95.328125 C 221.878906 95.835938 221.222656 96.226562 220.5 96.496094 C 219.777344 96.765625 219.03125 96.902344 218.261719 96.902344 L 198.832031 96.902344 C 198.5 96.902344 198.175781 96.863281 197.855469 96.785156 C 197.53125 96.710938 197.222656 96.601562 196.921875 96.453125 C 196.625 96.304688 196.34375 96.125 196.085938 95.914062 C 195.824219 95.699219 195.589844 95.460938 195.382812 95.195312 C 195.171875 94.925781 194.992188 94.640625 194.84375 94.332031 C 194.695312 94.023438 194.582031 93.703125 194.503906 93.367188 C 194.421875 93.03125 194.378906 92.691406 194.371094 92.347656 C 194.363281 92.003906 194.390625 91.660156 194.457031 91.324219 L 210.308594 8.441406 C 210.457031 7.65625 210.730469 6.917969 211.125 6.230469 C 211.519531 5.542969 212.015625 4.945312 212.609375 4.4375 C 213.203125 3.929688 213.859375 3.539062 214.582031 3.269531 C 215.304688 3 216.050781 2.863281 216.816406 2.863281 L 236.289062 2.863281 C 236.621094 2.863281 236.945312 2.902344 237.265625 2.976562 C 237.589844 3.054688 237.898438 3.164062 238.195312 3.3125 C 238.496094 3.460938 238.773438 3.640625 239.035156 3.851562 C 239.292969 4.066406 239.527344 4.304688 239.738281 4.570312 C 239.945312 4.835938 240.125 5.125 240.273438 5.433594 C 240.421875 5.742188 240.535156 6.0625 240.613281 6.398438 C 240.691406 6.730469 240.738281 7.070312 240.742188 7.417969 C 240.75 7.761719 240.722656 8.101562 240.65625 8.441406 L 236.386719 30.617188 C 236.320312 30.957031 236.292969 31.296875 236.300781 31.640625 C 236.308594 31.988281 236.351562 32.328125 236.429688 32.660156 C 236.507812 32.996094 236.625 33.316406 236.769531 33.625 C 236.917969 33.933594 237.097656 34.222656 237.304688 34.488281 C 237.515625 34.753906 237.75 34.992188 238.007812 35.207031 C 238.269531 35.417969 238.546875 35.597656 238.847656 35.746094 C 239.144531 35.894531 239.453125 36.003906 239.777344 36.082031 C 240.097656 36.15625 240.425781 36.195312 240.753906 36.195312 L 257.886719 36.195312 C 258.65625 36.195312 259.402344 36.058594 260.125 35.789062 C 260.847656 35.519531 261.503906 35.132812 262.097656 34.621094 C 262.691406 34.113281 263.1875 33.515625 263.582031 32.828125 C 263.980469 32.140625 264.253906 31.40625 264.40625 30.617188 L 268.675781 8.441406 C 268.828125 7.652344 269.101562 6.917969 269.496094 6.230469 C 269.894531 5.542969 270.386719 4.945312 270.980469 4.4375 C 271.574219 3.929688 272.234375 3.539062 272.957031 3.269531 C 273.679688 3 274.425781 2.863281 275.191406 2.863281 L 294.625 2.863281 C 294.953125 2.863281 295.28125 2.902344 295.601562 2.976562 C 295.921875 3.054688 296.234375 3.164062 296.53125 3.3125 C 296.832031 3.460938 297.109375 3.640625 297.371094 3.851562 C 297.628906 4.066406 297.863281 4.304688 298.074219 4.570312 C 298.28125 4.835938 298.460938 5.125 298.609375 5.433594 C 298.757812 5.742188 298.871094 6.0625 298.953125 6.398438 C 299.03125 6.734375 299.078125 7.074219 299.085938 7.417969 C 299.09375 7.761719 299.0625 8.105469 299 8.441406 Z M 299 8.441406 " fill-opacity="1" fill-rule="nonzero"/><path fill="#006217" d="M 402.320312 8.441406 L 386.46875 91.324219 C 386.316406 92.109375 386.046875 92.847656 385.648438 93.535156 C 385.253906 94.222656 384.761719 94.820312 384.167969 95.328125 C 383.574219 95.835938 382.917969 96.226562 382.195312 96.496094 C 381.472656 96.765625 380.726562 96.902344 379.960938 96.902344 L 365.886719 96.902344 C 365.054688 96.902344 364.234375 96.789062 363.429688 96.570312 C 362.625 96.351562 361.859375 96.03125 361.132812 95.609375 C 360.40625 95.183594 359.746094 94.671875 359.144531 94.070312 C 358.542969 93.46875 358.023438 92.796875 357.589844 92.058594 L 337.492188 57.96875 C 337.261719 57.578125 336.945312 57.289062 336.542969 57.101562 C 336.140625 56.914062 335.722656 56.859375 335.289062 56.941406 C 334.855469 57.023438 334.484375 57.222656 334.167969 57.546875 C 333.855469 57.867188 333.65625 58.253906 333.566406 58.703125 L 327.328125 91.324219 C 327.175781 92.109375 326.902344 92.847656 326.507812 93.535156 C 326.113281 94.222656 325.621094 94.820312 325.027344 95.328125 C 324.433594 95.835938 323.773438 96.226562 323.050781 96.496094 C 322.328125 96.765625 321.585938 96.902344 320.816406 96.902344 L 302.152344 96.902344 C 301.820312 96.902344 301.496094 96.863281 301.175781 96.785156 C 300.851562 96.710938 300.542969 96.601562 300.242188 96.453125 C 299.945312 96.304688 299.664062 96.125 299.40625 95.914062 C 299.144531 95.699219 298.910156 95.460938 298.703125 95.195312 C 298.492188 94.925781 298.3125 94.640625 298.164062 94.332031 C 298.015625 94.023438 297.902344 93.703125 297.824219 93.367188 C 297.742188 93.03125 297.699219 92.691406 297.691406 92.347656 C 297.683594 92.003906 297.710938 91.660156 297.777344 91.324219 L 313.628906 8.441406 C 313.777344 7.65625 314.050781 6.917969 314.445312 6.230469 C 314.839844 5.542969 315.335938 4.945312 315.929688 4.4375 C 316.523438 3.929688 317.179688 3.539062 317.902344 3.269531 C 318.625 3 319.371094 2.863281 320.136719 2.863281 L 334.210938 2.863281 C 335.042969 2.863281 335.859375 2.972656 336.664062 3.191406 C 337.46875 3.410156 338.234375 3.734375 338.960938 4.15625 C 339.6875 4.582031 340.351562 5.09375 340.953125 5.695312 C 341.554688 6.296875 342.070312 6.964844 342.507812 7.707031 L 362.605469 41.796875 C 362.835938 42.1875 363.152344 42.476562 363.554688 42.664062 C 363.957031 42.851562 364.375 42.90625 364.804688 42.824219 C 365.238281 42.742188 365.613281 42.542969 365.925781 42.21875 C 366.242188 41.898438 366.441406 41.511719 366.527344 41.058594 L 372.769531 8.441406 C 372.917969 7.65625 373.191406 6.917969 373.585938 6.230469 C 373.980469 5.542969 374.476562 4.945312 375.070312 4.4375 C 375.664062 3.929688 376.320312 3.539062 377.042969 3.269531 C 377.765625 3 378.511719 2.863281 379.277344 2.863281 L 397.945312 2.863281 C 398.273438 2.863281 398.601562 2.902344 398.921875 2.976562 C 399.242188 3.054688 399.554688 3.164062 399.851562 3.3125 C 400.152344 3.460938 400.429688 3.640625 400.691406 3.851562 C 400.949219 4.066406 401.183594 4.304688 401.394531 4.570312 C 401.605469 4.835938 401.78125 5.125 401.929688 5.433594 C 402.078125 5.742188 402.191406 6.0625 402.273438 6.398438 C 402.351562 6.734375 402.398438 7.074219 402.40625 7.417969 C 402.414062 7.761719 402.382812 8.105469 402.320312 8.441406 Z M 402.320312 8.441406 " fill-opacity="1" fill-rule="nonzero"/><path fill="#006217" d="M 462.007812 2.863281 L 481.484375 2.863281 C 481.8125 2.863281 482.136719 2.902344 482.460938 2.976562 C 482.78125 3.054688 483.09375 3.164062 483.390625 3.3125 C 483.691406 3.460938 483.96875 3.640625 484.230469 3.851562 C 484.488281 4.066406 484.722656 4.304688 484.933594 4.570312 C 485.144531 4.835938 485.320312 5.125 485.46875 5.433594 C 485.617188 5.742188 485.734375 6.0625 485.8125 6.398438 C 485.890625 6.734375 485.9375 7.074219 485.945312 7.417969 C 485.953125 7.761719 485.925781 8.105469 485.859375 8.441406 L 474.726562 66.746094 C 474.660156 67.085938 474.632812 67.425781 474.640625 67.769531 C 474.648438 68.117188 474.691406 68.457031 474.769531 68.789062 C 474.851562 69.125 474.964844 69.445312 475.113281 69.753906 C 475.261719 70.0625 475.441406 70.351562 475.652344 70.617188 C 475.859375 70.886719 476.09375 71.125 476.355469 71.335938 C 476.613281 71.550781 476.894531 71.730469 477.191406 71.875 C 477.492188 72.023438 477.800781 72.136719 478.125 72.210938 C 478.445312 72.285156 478.769531 72.324219 479.101562 72.324219 L 508.863281 72.324219 C 509.191406 72.324219 509.519531 72.363281 509.839844 72.4375 C 510.164062 72.515625 510.472656 72.625 510.769531 72.773438 C 511.066406 72.921875 511.347656 73.101562 511.605469 73.3125 C 511.867188 73.527344 512.101562 73.765625 512.308594 74.03125 C 512.515625 74.296875 512.695312 74.585938 512.84375 74.894531 C 512.992188 75.203125 513.105469 75.523438 513.183594 75.859375 C 513.261719 76.191406 513.304688 76.53125 513.3125 76.875 C 513.320312 77.222656 513.292969 77.5625 513.226562 77.898438 L 510.625 91.324219 C 510.472656 92.113281 510.199219 92.847656 509.800781 93.535156 C 509.40625 94.222656 508.910156 94.820312 508.316406 95.328125 C 507.71875 95.835938 507.0625 96.226562 506.339844 96.496094 C 505.613281 96.765625 504.871094 96.902344 504.101562 96.902344 L 444.023438 96.902344 C 443.695312 96.902344 443.367188 96.863281 443.046875 96.785156 C 442.722656 96.710938 442.414062 96.601562 442.117188 96.453125 C 441.816406 96.304688 441.539062 96.125 441.277344 95.914062 C 441.019531 95.699219 440.785156 95.460938 440.574219 95.195312 C 440.363281 94.925781 440.1875 94.640625 440.039062 94.332031 C 439.890625 94.023438 439.777344 93.703125 439.695312 93.367188 C 439.617188 93.03125 439.570312 92.691406 439.5625 92.347656 C 439.554688 92.003906 439.585938 91.660156 439.648438 91.324219 L 455.5 8.441406 C 455.652344 7.65625 455.921875 6.917969 456.320312 6.230469 C 456.714844 5.542969 457.207031 4.945312 457.800781 4.4375 C 458.394531 3.929688 459.050781 3.539062 459.773438 3.269531 C 460.496094 3 461.242188 2.863281 462.007812 2.863281 Z M 462.007812 2.863281 " fill-opacity="1" fill-rule="nonzero"/><path fill="#006217" d="M 568.511719 99.035156 C 559.347656 99.035156 551.3125 97.265625 544.402344 93.746094 C 537.515625 90.222656 532.203125 85.277344 528.460938 78.902344 C 524.738281 72.535156 522.890625 65.238281 522.890625 56.992188 C 522.890625 46.058594 525.3125 36.328125 530.160156 27.796875 C 535.007812 19.242188 541.726562 12.585938 550.3125 7.839844 C 558.921875 3.109375 568.679688 0.730469 579.566406 0.730469 C 588.75 0.730469 596.785156 2.496094 603.671875 6.019531 C 610.5625 9.550781 615.855469 14.496094 619.574219 20.863281 C 623.316406 27.238281 625.1875 34.539062 625.1875 42.773438 C 625.1875 53.703125 622.761719 63.457031 617.917969 72.015625 C 613.089844 80.546875 606.371094 87.191406 597.761719 91.921875 C 589.144531 96.667969 579.394531 99.035156 568.511719 99.035156 Z M 571.105469 73.390625 C 575.886719 73.390625 580.054688 72.101562 583.605469 69.523438 C 587.175781 66.925781 589.898438 63.425781 591.769531 59.035156 C 593.660156 54.625 594.617188 49.828125 594.617188 44.636719 C 594.617188 39.105469 593.042969 34.671875 589.898438 31.351562 C 586.773438 28.039062 582.476562 26.375 577.015625 26.375 C 572.1875 26.375 568 27.683594 564.429688 30.285156 C 560.878906 32.863281 558.15625 36.359375 556.265625 40.773438 C 554.394531 45.160156 553.460938 49.949219 553.460938 55.125 C 553.460938 60.671875 555.011719 65.101562 558.136719 68.414062 C 561.28125 71.734375 565.597656 73.390625 571.105469 73.390625 Z M 571.105469 73.390625 " fill-opacity="1" fill-rule="nonzero"/><path fill="#006217" d="M 722.25 39.421875 C 721.738281 43.472656 720.660156 47.246094 719.011719 50.738281 C 717.683594 53.554688 714.835938 57.734375 712.734375 59.972656 C 710.0625 62.8125 706.917969 65.214844 703.296875 67.179688 C 700.628906 68.625 699.535156 71.691406 701.03125 74.414062 L 710.664062 91.96875 C 710.804688 92.21875 710.90625 92.480469 710.976562 92.761719 C 711.050781 93.039062 711.085938 93.324219 711.082031 93.613281 C 711.082031 93.902344 711.046875 94.1875 710.976562 94.464844 C 710.902344 94.742188 710.796875 95.007812 710.660156 95.257812 C 710.519531 95.507812 710.355469 95.734375 710.160156 95.9375 C 709.960938 96.140625 709.746094 96.316406 709.507812 96.460938 C 709.265625 96.605469 709.011719 96.714844 708.746094 96.789062 C 708.480469 96.863281 708.207031 96.902344 707.933594 96.902344 L 687.3125 96.902344 C 686.484375 96.902344 685.675781 96.789062 684.878906 96.5625 C 684.082031 96.335938 683.328125 96.003906 682.613281 95.570312 C 681.902344 95.132812 681.253906 94.609375 680.675781 93.992188 C 680.097656 93.378906 679.605469 92.695312 679.203125 91.941406 L 671.824219 78.21875 C 671.417969 77.464844 670.925781 76.78125 670.347656 76.164062 C 669.769531 75.550781 669.125 75.023438 668.410156 74.589844 C 667.699219 74.152344 666.945312 73.824219 666.148438 73.597656 C 665.351562 73.371094 664.539062 73.257812 663.714844 73.257812 C 663.1875 73.464844 662.707031 73.757812 662.277344 74.136719 C 661.847656 74.515625 661.488281 74.957031 661.207031 75.46875 C 660.925781 75.976562 660.730469 76.519531 660.628906 77.097656 C 660.527344 77.675781 660.519531 78.257812 660.609375 78.835938 L 658.230469 91.320312 C 658.078125 92.109375 657.808594 92.84375 657.414062 93.535156 C 657.019531 94.222656 656.523438 94.820312 655.929688 95.328125 C 655.339844 95.835938 654.679688 96.226562 653.957031 96.496094 C 653.234375 96.765625 652.492188 96.902344 651.722656 96.902344 L 632.292969 96.902344 C 631.964844 96.902344 631.636719 96.863281 631.316406 96.789062 C 630.992188 96.710938 630.683594 96.601562 630.386719 96.453125 C 630.085938 96.304688 629.808594 96.125 629.546875 95.914062 C 629.285156 95.699219 629.050781 95.460938 628.84375 95.195312 C 628.632812 94.925781 628.453125 94.640625 628.308594 94.332031 C 628.160156 94.023438 628.042969 93.703125 627.964844 93.367188 C 627.882812 93.03125 627.839844 92.691406 627.832031 92.347656 C 627.824219 92.003906 627.851562 91.660156 627.917969 91.324219 L 643.769531 8.441406 C 643.917969 7.65625 644.191406 6.917969 644.585938 6.230469 C 644.980469 5.542969 645.476562 4.945312 646.070312 4.4375 C 646.664062 3.929688 647.320312 3.539062 648.042969 3.269531 C 648.765625 3 649.511719 2.863281 650.277344 2.863281 L 679.742188 2.863281 C 682.75 2.863281 687.625 2.835938 690.621094 3.070312 C 697.53125 3.609375 703.402344 5.21875 708.226562 7.898438 C 710.875 9.367188 714.757812 12.542969 716.675781 14.953125 C 719.59375 18.617188 721.433594 22.996094 722.195312 28.082031 C 722.660156 31.183594 722.644531 36.3125 722.25 39.421875 Z M 690.570312 31.429688 C 689.582031 29.835938 688.050781 28.703125 685.96875 28.035156 C 683.109375 27.113281 678.15625 27.308594 675.152344 27.308594 C 674.433594 27.351562 673.746094 27.519531 673.085938 27.8125 C 672.421875 28.105469 671.828125 28.503906 671.300781 29.011719 C 670.773438 29.523438 670.34375 30.109375 670.007812 30.773438 C 669.675781 31.4375 669.457031 32.140625 669.355469 32.882812 L 667.253906 43.773438 C 667.191406 44.109375 667.160156 44.453125 667.167969 44.796875 C 667.175781 45.140625 667.21875 45.480469 667.300781 45.816406 C 667.378906 46.152344 667.492188 46.472656 667.640625 46.78125 C 667.789062 47.089844 667.964844 47.375 668.175781 47.640625 C 668.382812 47.910156 668.617188 48.148438 668.878906 48.359375 C 669.136719 48.574219 669.417969 48.753906 669.714844 48.902344 C 670.011719 49.046875 670.324219 49.160156 670.644531 49.234375 C 670.964844 49.3125 671.292969 49.347656 671.621094 49.347656 L 673.195312 49.347656 C 676.199219 49.347656 681.148438 49.507812 684.011719 48.597656 C 686.671875 47.757812 690.410156 44.277344 691.300781 41.316406 C 692.011719 38.945312 692.179688 34.027344 690.570312 31.429688 Z M 690.570312 31.429688 " fill-opacity="1" fill-rule="nonzero"/><path fill="#006217" d="M 722.25 39.421875 C 721.738281 43.472656 720.660156 47.246094 719.011719 50.738281 C 717.683594 53.554688 714.835938 57.734375 712.734375 59.972656 C 710.0625 62.8125 706.917969 65.214844 703.296875 67.179688 C 700.628906 68.625 699.535156 71.691406 701.03125 74.414062 L 710.664062 91.96875 C 710.804688 92.21875 710.90625 92.480469 710.976562 92.761719 C 711.050781 93.039062 711.085938 93.324219 711.082031 93.613281 C 711.082031 93.902344 711.046875 94.1875 710.976562 94.464844 C 710.902344 94.742188 710.796875 95.007812 710.660156 95.257812 C 710.519531 95.507812 710.355469 95.734375 710.160156 95.9375 C 709.960938 96.140625 709.746094 96.316406 709.507812 96.460938 C 709.265625 96.605469 709.011719 96.714844 708.746094 96.789062 C 708.480469 96.863281 708.207031 96.902344 707.933594 96.902344 L 687.3125 96.902344 C 686.484375 96.902344 685.675781 96.789062 684.878906 96.5625 C 684.082031 96.335938 683.328125 96.003906 682.613281 95.570312 C 681.902344 95.132812 681.253906 94.609375 680.675781 93.992188 C 680.097656 93.378906 679.605469 92.695312 679.203125 91.941406 L 671.824219 78.21875 C 671.417969 77.464844 670.925781 76.78125 670.347656 76.164062 C 669.769531 75.550781 669.125 75.023438 668.410156 74.589844 C 667.699219 74.152344 666.945312 73.824219 666.148438 73.597656 C 665.351562 73.371094 664.539062 73.257812 663.714844 73.257812 C 663.1875 73.464844 662.707031 73.757812 662.277344 74.136719 C 661.847656 74.515625 661.488281 74.957031 661.207031 75.46875 C 660.925781 75.976562 660.730469 76.519531 660.628906 77.097656 C 660.527344 77.675781 660.519531 78.257812 660.609375 78.835938 L 658.230469 91.320312 C 658.078125 92.109375 657.808594 92.84375 657.414062 93.535156 C 657.019531 94.222656 656.523438 94.820312 655.929688 95.328125 C 655.339844 95.835938 654.679688 96.226562 653.957031 96.496094 C 653.234375 96.765625 652.492188 96.902344 651.722656 96.902344 L 632.292969 96.902344 C 631.964844 96.902344 631.636719 96.863281 631.316406 96.789062 C 630.992188 96.710938 630.683594 96.601562 630.386719 96.453125 C 630.085938 96.304688 629.808594 96.125 629.546875 95.914062 C 629.285156 95.699219 629.050781 95.460938 628.84375 95.195312 C 628.632812 94.925781 628.453125 94.640625 628.308594 94.332031 C 628.160156 94.023438 628.042969 93.703125 627.964844 93.367188 C 627.882812 93.03125 627.839844 92.691406 627.832031 92.347656 C 627.824219 92.003906 627.851562 91.660156 627.917969 91.324219 L 643.769531 8.441406 C 643.917969 7.65625 644.191406 6.917969 644.585938 6.230469 C 644.980469 5.542969 645.476562 4.945312 646.070312 4.4375 C 646.664062 3.929688 647.320312 3.539062 648.042969 3.269531 C 648.765625 3 649.511719 2.863281 650.277344 2.863281 L 679.742188 2.863281 C 682.75 2.863281 687.625 2.835938 690.621094 3.070312 C 697.53125 3.609375 703.402344 5.21875 708.226562 7.898438 C 710.875 9.367188 714.757812 12.542969 716.675781 14.953125 C 719.59375 18.617188 721.433594 22.996094 722.195312 28.082031 C 722.660156 31.183594 722.644531 36.3125 722.25 39.421875 Z M 690.570312 31.429688 C 689.582031 29.835938 688.050781 28.703125 685.96875 28.035156 C 683.109375 27.113281 678.15625 27.308594 675.152344 27.308594 C 674.433594 27.351562 673.746094 27.519531 673.085938 27.8125 C 672.421875 28.105469 671.828125 28.503906 671.300781 29.011719 C 670.773438 29.523438 670.34375 30.109375 670.007812 30.773438 C 669.675781 31.4375 669.457031 32.140625 669.355469 32.882812 L 667.253906 43.773438 C 667.191406 44.109375 667.160156 44.453125 667.167969 44.796875 C 667.175781 45.140625 667.21875 45.480469 667.300781 45.816406 C 667.378906 46.152344 667.492188 46.472656 667.640625 46.78125 C 667.789062 47.089844 667.964844 47.375 668.175781 47.640625 C 668.382812 47.910156 668.617188 48.148438 668.878906 48.359375 C 669.136719 48.574219 669.417969 48.753906 669.714844 48.902344 C 670.011719 49.046875 670.324219 49.160156 670.644531 49.234375 C 670.964844 49.3125 671.292969 49.347656 671.621094 49.347656 L 673.195312 49.347656 C 676.199219 49.347656 681.148438 49.507812 684.011719 48.597656 C 686.671875 47.757812 690.410156 44.277344 691.300781 41.316406 C 692.011719 38.945312 692.179688 34.027344 690.570312 31.429688 Z M 690.570312 31.429688 " fill-opacity="1" fill-rule="nonzero"/><path fill="#006217" d="M 746.015625 2.863281 L 775.777344 2.863281 C 778.78125 2.863281 783.65625 2.839844 786.65625 3.054688 C 791.699219 3.417969 796.34375 4.300781 800.578125 5.695312 C 803.445312 6.640625 807.917969 8.710938 810.480469 10.351562 C 813.457031 12.257812 816.054688 14.492188 818.269531 17.058594 C 820.28125 19.386719 822.929688 23.707031 824.117188 26.589844 C 825.449219 29.832031 826.335938 33.332031 826.773438 37.097656 C 827.136719 40.214844 827.125 45.324219 826.863281 48.453125 C 826.328125 54.929688 824.851562 60.890625 822.4375 66.335938 C 821.175781 69.1875 818.617188 73.546875 816.769531 76.023438 C 813.410156 80.53125 809.359375 84.355469 804.625 87.488281 C 802.085938 89.167969 797.707031 91.441406 794.902344 92.5625 C 789.167969 94.851562 782.949219 96.230469 776.238281 96.710938 C 773.242188 96.925781 768.363281 96.902344 765.359375 96.902344 L 728.027344 96.902344 C 727.699219 96.902344 727.371094 96.863281 727.050781 96.785156 C 726.730469 96.710938 726.417969 96.601562 726.121094 96.453125 C 725.820312 96.304688 725.542969 96.125 725.28125 95.914062 C 725.023438 95.699219 724.789062 95.460938 724.578125 95.195312 C 724.367188 94.925781 724.191406 94.640625 724.042969 94.332031 C 723.894531 94.023438 723.78125 93.703125 723.699219 93.367188 C 723.621094 93.03125 723.574219 92.691406 723.566406 92.347656 C 723.558594 92.003906 723.589844 91.660156 723.652344 91.324219 L 739.503906 8.441406 C 739.65625 7.65625 739.925781 6.917969 740.324219 6.230469 C 740.71875 5.542969 741.210938 4.945312 741.804688 4.4375 C 742.398438 3.929688 743.054688 3.539062 743.777344 3.269531 C 744.5 3 745.246094 2.863281 746.015625 2.863281 Z M 777.238281 71.726562 C 780.515625 71.128906 783.40625 69.957031 785.90625 68.210938 C 788.398438 66.46875 791.65625 62.5625 793.097656 59.8125 C 794.585938 56.972656 795.585938 53.804688 796.089844 50.308594 C 796.539062 47.203125 796.605469 42.027344 795.800781 39.011719 C 795.566406 38.140625 795.273438 37.316406 794.921875 36.535156 C 793.644531 33.714844 789.8125 30.246094 787.023438 29.128906 C 785.835938 28.65625 784.546875 28.289062 783.148438 28.03125 C 780.191406 27.488281 775.296875 27.574219 772.289062 27.574219 L 771.609375 27.574219 C 770.84375 27.574219 770.097656 27.707031 769.375 27.976562 C 768.652344 28.25 767.996094 28.636719 767.402344 29.144531 C 766.808594 29.65625 766.316406 30.253906 765.921875 30.941406 C 765.527344 31.628906 765.253906 32.367188 765.105469 33.152344 L 758.726562 66.613281 C 758.664062 66.949219 758.632812 67.292969 758.640625 67.636719 C 758.648438 67.984375 758.695312 68.324219 758.773438 68.65625 C 758.855469 68.992188 758.96875 69.3125 759.117188 69.621094 C 759.265625 69.929688 759.445312 70.21875 759.652344 70.484375 C 759.863281 70.75 760.097656 70.992188 760.359375 71.203125 C 760.617188 71.414062 760.898438 71.59375 761.195312 71.742188 C 761.496094 71.890625 761.804688 72.003906 762.128906 72.078125 C 762.449219 72.152344 762.777344 72.191406 763.105469 72.191406 L 766.378906 72.191406 C 769.386719 72.191406 774.28125 72.265625 777.238281 71.726562 Z M 777.238281 71.726562 " fill-opacity="1" fill-rule="nonzero"/><path fill="#006217" d="M 870.878906 32.355469 C 870.820312 32.6875 870.796875 33.027344 870.808594 33.367188 C 870.824219 33.707031 870.871094 34.042969 870.957031 34.375 C 871.042969 34.703125 871.160156 35.019531 871.3125 35.320312 C 871.460938 35.621094 871.644531 35.902344 871.855469 36.164062 C 872.066406 36.425781 872.300781 36.65625 872.5625 36.863281 C 872.820312 37.066406 873.101562 37.242188 873.398438 37.382812 C 873.695312 37.523438 874.003906 37.628906 874.324219 37.699219 C 874.640625 37.769531 874.964844 37.800781 875.292969 37.792969 L 902.460938 37.792969 C 902.789062 37.792969 903.117188 37.832031 903.4375 37.90625 C 903.761719 37.984375 904.070312 38.09375 904.367188 38.242188 C 904.667969 38.390625 904.945312 38.570312 905.207031 38.78125 C 905.464844 38.996094 905.699219 39.234375 905.910156 39.5 C 906.117188 39.769531 906.296875 40.054688 906.445312 40.363281 C 906.59375 40.671875 906.707031 40.992188 906.789062 41.328125 C 906.867188 41.664062 906.910156 42.003906 906.917969 42.347656 C 906.925781 42.691406 906.898438 43.035156 906.832031 43.371094 L 904.59375 55.058594 C 904.441406 55.847656 904.167969 56.582031 903.773438 57.269531 C 903.378906 57.957031 902.882812 58.554688 902.289062 59.0625 C 901.695312 59.574219 901.039062 59.960938 900.316406 60.230469 C 899.59375 60.503906 898.847656 60.636719 898.082031 60.636719 L 870.828125 60.636719 C 870.058594 60.636719 869.316406 60.773438 868.59375 61.042969 C 867.871094 61.3125 867.214844 61.703125 866.621094 62.210938 C 866.03125 62.71875 865.535156 63.316406 865.140625 64.007812 C 864.75 64.695312 864.476562 65.429688 864.328125 66.21875 L 864.101562 67.410156 C 864.039062 67.75 864.011719 68.09375 864.019531 68.4375 C 864.027344 68.78125 864.070312 69.121094 864.152344 69.457031 C 864.234375 69.792969 864.347656 70.113281 864.496094 70.421875 C 864.644531 70.730469 864.824219 71.019531 865.035156 71.285156 C 865.242188 71.550781 865.480469 71.792969 865.738281 72.003906 C 866 72.214844 866.28125 72.394531 866.578125 72.542969 C 866.875 72.691406 867.1875 72.800781 867.507812 72.878906 C 867.832031 72.953125 868.15625 72.992188 868.488281 72.992188 L 902.714844 72.992188 C 903.042969 72.992188 903.371094 73.027344 903.691406 73.105469 C 904.011719 73.179688 904.324219 73.292969 904.621094 73.441406 C 904.917969 73.585938 905.199219 73.765625 905.457031 73.980469 C 905.71875 74.191406 905.953125 74.433594 906.160156 74.699219 C 906.367188 74.964844 906.546875 75.253906 906.695312 75.5625 C 906.84375 75.867188 906.957031 76.191406 907.035156 76.523438 C 907.113281 76.859375 907.15625 77.199219 907.164062 77.542969 C 907.171875 77.886719 907.140625 78.230469 907.078125 78.566406 L 904.605469 91.324219 C 904.449219 92.113281 904.175781 92.847656 903.78125 93.535156 C 903.382812 94.222656 902.886719 94.820312 902.292969 95.328125 C 901.699219 95.835938 901.039062 96.226562 900.316406 96.496094 C 899.59375 96.765625 898.847656 96.902344 898.082031 96.902344 L 834.175781 96.902344 C 833.847656 96.902344 833.519531 96.863281 833.199219 96.785156 C 832.875 96.710938 832.566406 96.601562 832.269531 96.453125 C 831.96875 96.304688 831.691406 96.125 831.429688 95.914062 C 831.171875 95.699219 830.9375 95.460938 830.726562 95.195312 C 830.515625 94.925781 830.339844 94.640625 830.191406 94.332031 C 830.042969 94.023438 829.929688 93.703125 829.847656 93.367188 C 829.769531 93.03125 829.722656 92.691406 829.714844 92.347656 C 829.707031 92.003906 829.738281 91.660156 829.800781 91.324219 L 845.652344 8.441406 C 845.804688 7.65625 846.074219 6.917969 846.472656 6.230469 C 846.867188 5.542969 847.359375 4.945312 847.953125 4.4375 C 848.546875 3.929688 849.203125 3.539062 849.925781 3.269531 C 850.648438 3 851.394531 2.863281 852.160156 2.863281 L 914.40625 2.863281 C 914.738281 2.863281 915.0625 2.902344 915.386719 2.976562 C 915.707031 3.054688 916.015625 3.164062 916.316406 3.3125 C 916.613281 3.460938 916.890625 3.640625 917.152344 3.851562 C 917.414062 4.066406 917.648438 4.304688 917.855469 4.570312 C 918.066406 4.835938 918.242188 5.125 918.390625 5.433594 C 918.539062 5.742188 918.652344 6.0625 918.734375 6.398438 C 918.8125 6.734375 918.855469 7.070312 918.863281 7.417969 C 918.871094 7.761719 918.84375 8.101562 918.777344 8.441406 L 916.328125 21.195312 C 916.179688 21.984375 915.90625 22.71875 915.507812 23.40625 C 915.113281 24.09375 914.617188 24.691406 914.027344 25.199219 C 913.433594 25.710938 912.773438 26.097656 912.050781 26.367188 C 911.328125 26.636719 910.582031 26.773438 909.816406 26.773438 L 877.375 26.773438 C 876.609375 26.773438 875.863281 26.910156 875.140625 27.179688 C 874.417969 27.449219 873.761719 27.839844 873.171875 28.347656 C 872.578125 28.855469 872.085938 29.453125 871.691406 30.140625 C 871.296875 30.832031 871.027344 31.566406 870.878906 32.355469 Z M 870.878906 32.355469 " fill-opacity="1" fill-rule="nonzero"/><path fill="#006217" d="M 1020.828125 8.441406 L 1004.980469 91.324219 C 1004.828125 92.109375 1004.554688 92.847656 1004.160156 93.535156 C 1003.765625 94.222656 1003.269531 94.820312 1002.679688 95.328125 C 1002.085938 95.835938 1001.425781 96.226562 1000.703125 96.496094 C 999.980469 96.765625 999.238281 96.902344 998.46875 96.902344 L 984.394531 96.902344 C 983.566406 96.902344 982.746094 96.789062 981.941406 96.570312 C 981.136719 96.351562 980.371094 96.03125 979.644531 95.609375 C 978.917969 95.183594 978.253906 94.671875 977.65625 94.070312 C 977.054688 93.46875 976.535156 92.796875 976.097656 92.058594 L 956 57.96875 C 955.769531 57.578125 955.453125 57.289062 955.050781 57.101562 C 954.652344 56.914062 954.234375 56.859375 953.800781 56.941406 C 953.367188 57.023438 952.992188 57.222656 952.679688 57.546875 C 952.367188 57.867188 952.164062 58.253906 952.078125 58.703125 L 945.835938 91.324219 C 945.6875 92.109375 945.414062 92.847656 945.019531 93.535156 C 944.625 94.222656 944.128906 94.820312 943.535156 95.328125 C 942.941406 95.835938 942.285156 96.226562 941.5625 96.496094 C 940.839844 96.765625 940.09375 96.902344 939.328125 96.902344 L 920.664062 96.902344 C 920.332031 96.902344 920.007812 96.863281 919.683594 96.785156 C 919.363281 96.710938 919.050781 96.601562 918.753906 96.453125 C 918.457031 96.304688 918.175781 96.125 917.917969 95.914062 C 917.65625 95.699219 917.421875 95.460938 917.210938 95.195312 C 917.003906 94.925781 916.824219 94.640625 916.675781 94.332031 C 916.527344 94.023438 916.414062 93.703125 916.332031 93.367188 C 916.253906 93.03125 916.210938 92.691406 916.203125 92.347656 C 916.195312 92.003906 916.222656 91.660156 916.289062 91.324219 L 932.136719 8.441406 C 932.289062 7.65625 932.5625 6.917969 932.957031 6.230469 C 933.351562 5.542969 933.847656 4.945312 934.4375 4.4375 C 935.03125 3.929688 935.691406 3.539062 936.414062 3.269531 C 937.136719 3 937.878906 2.863281 938.648438 2.863281 L 952.722656 2.863281 C 953.550781 2.863281 954.371094 2.972656 955.175781 3.191406 C 955.980469 3.410156 956.746094 3.734375 957.472656 4.15625 C 958.199219 4.582031 958.863281 5.09375 959.460938 5.695312 C 960.0625 6.296875 960.582031 6.964844 961.019531 7.707031 L 981.117188 41.796875 C 981.347656 42.1875 981.664062 42.476562 982.066406 42.664062 C 982.464844 42.851562 982.882812 42.90625 983.316406 42.824219 C 983.75 42.742188 984.125 42.542969 984.4375 42.21875 C 984.75 41.898438 984.953125 41.511719 985.039062 41.058594 L 991.28125 8.441406 C 991.429688 7.65625 991.703125 6.917969 992.097656 6.230469 C 992.492188 5.542969 992.988281 4.945312 993.582031 4.4375 C 994.175781 3.929688 994.832031 3.539062 995.554688 3.269531 C 996.277344 3 997.023438 2.863281 997.789062 2.863281 L 1016.453125 2.863281 C 1016.785156 2.863281 1017.109375 2.902344 1017.433594 2.976562 C 1017.753906 3.054688 1018.066406 3.164062 1018.363281 3.3125 C 1018.660156 3.460938 1018.941406 3.640625 1019.199219 3.851562 C 1019.460938 4.066406 1019.695312 4.304688 1019.90625 4.570312 C 1020.113281 4.835938 1020.292969 5.125 1020.441406 5.433594 C 1020.589844 5.742188 1020.703125 6.0625 1020.785156 6.398438 C 1020.863281 6.734375 1020.90625 7.074219 1020.914062 7.417969 C 1020.921875 7.761719 1020.894531 8.105469 1020.828125 8.441406 Z M 1020.828125 8.441406 " fill-opacity="1" fill-rule="nonzero"/><path fill="#006217" d="M 50.582031 224.890625 C 41.421875 224.890625 33.382812 223.125 26.476562 219.601562 C 19.585938 216.078125 14.273438 211.136719 10.53125 204.757812 C 6.8125 198.390625 4.960938 191.09375 4.960938 182.847656 C 4.960938 171.917969 7.386719 162.183594 12.230469 153.652344 C 17.078125 145.097656 23.796875 138.441406 32.386719 133.699219 C 40.996094 128.964844 50.753906 126.585938 61.636719 126.585938 C 70.820312 126.585938 78.855469 128.355469 85.746094 131.875 C 92.632812 135.410156 97.925781 140.351562 101.644531 146.71875 C 105.386719 153.097656 107.257812 160.394531 107.257812 168.628906 C 107.257812 179.558594 104.835938 189.316406 99.988281 197.871094 C 95.160156 206.402344 88.445312 213.046875 79.835938 217.777344 C 71.214844 222.523438 61.46875 224.890625 50.582031 224.890625 Z M 53.175781 199.246094 C 57.960938 199.246094 62.125 197.957031 65.675781 195.382812 C 69.246094 192.78125 71.96875 189.28125 73.839844 184.894531 C 75.730469 180.484375 76.6875 175.683594 76.6875 170.496094 C 76.6875 164.960938 75.113281 160.527344 71.96875 157.207031 C 68.84375 153.894531 64.550781 152.230469 59.085938 152.230469 C 54.261719 152.230469 50.074219 153.539062 46.5 156.140625 C 42.949219 158.71875 40.230469 162.21875 38.335938 166.628906 C 36.464844 171.015625 35.53125 175.804688 35.53125 180.984375 C 35.53125 186.527344 37.082031 190.960938 40.207031 194.269531 C 43.355469 197.59375 47.671875 199.246094 53.175781 199.246094 Z M 53.175781 199.246094 " fill-opacity="1" fill-rule="nonzero"/><path fill="#006217" d="M 151.554688 158.207031 L 150.597656 163.183594 C 150.53125 163.523438 150.503906 163.863281 150.511719 164.207031 C 150.519531 164.554688 150.5625 164.894531 150.640625 165.226562 C 150.722656 165.5625 150.835938 165.882812 150.984375 166.191406 C 151.128906 166.5 151.308594 166.789062 151.519531 167.054688 C 151.726562 167.320312 151.960938 167.5625 152.222656 167.773438 C 152.480469 167.984375 152.761719 168.164062 153.058594 168.3125 C 153.355469 168.460938 153.667969 168.570312 153.988281 168.648438 C 154.3125 168.722656 154.636719 168.761719 154.964844 168.761719 L 181.625 168.761719 C 181.953125 168.761719 182.28125 168.800781 182.601562 168.875 C 182.921875 168.949219 183.234375 169.0625 183.53125 169.210938 C 183.828125 169.355469 184.109375 169.539062 184.367188 169.75 C 184.628906 169.960938 184.859375 170.203125 185.070312 170.46875 C 185.277344 170.734375 185.457031 171.023438 185.605469 171.332031 C 185.75 171.640625 185.863281 171.960938 185.945312 172.292969 C 186.023438 172.628906 186.066406 172.96875 186.074219 173.3125 C 186.082031 173.65625 186.050781 174 185.988281 174.335938 L 183.511719 187.09375 C 183.359375 187.882812 183.085938 188.617188 182.691406 189.304688 C 182.292969 189.992188 181.796875 190.589844 181.203125 191.097656 C 180.609375 191.605469 179.949219 191.996094 179.226562 192.265625 C 178.503906 192.535156 177.757812 192.671875 176.992188 192.671875 L 150.503906 192.671875 C 149.734375 192.671875 148.988281 192.804688 148.265625 193.074219 C 147.542969 193.34375 146.882812 193.734375 146.289062 194.242188 C 145.695312 194.75 145.199219 195.347656 144.804688 196.035156 C 144.40625 196.722656 144.132812 197.460938 143.980469 198.246094 L 140.3125 217.179688 C 140.160156 217.96875 139.886719 218.703125 139.492188 219.390625 C 139.09375 220.078125 138.601562 220.675781 138.003906 221.183594 C 137.410156 221.691406 136.753906 222.082031 136.027344 222.351562 C 135.304688 222.621094 134.558594 222.757812 133.792969 222.757812 L 114.363281 222.757812 C 114.03125 222.757812 113.707031 222.71875 113.382812 222.644531 C 113.0625 222.566406 112.75 222.457031 112.453125 222.308594 C 112.15625 222.160156 111.875 221.980469 111.617188 221.769531 C 111.355469 221.554688 111.121094 221.316406 110.910156 221.050781 C 110.703125 220.78125 110.523438 220.496094 110.375 220.1875 C 110.226562 219.878906 110.113281 219.558594 110.035156 219.222656 C 109.953125 218.886719 109.910156 218.546875 109.902344 218.203125 C 109.894531 217.859375 109.921875 217.515625 109.988281 217.179688 L 125.839844 134.296875 C 125.988281 133.511719 126.261719 132.773438 126.65625 132.085938 C 127.050781 131.398438 127.546875 130.800781 128.136719 130.292969 C 128.730469 129.785156 129.390625 129.394531 130.113281 129.125 C 130.835938 128.855469 131.578125 128.71875 132.347656 128.71875 L 194.59375 128.71875 C 194.921875 128.71875 195.25 128.757812 195.570312 128.832031 C 195.890625 128.910156 196.203125 129.019531 196.5 129.167969 C 196.796875 129.316406 197.078125 129.496094 197.335938 129.707031 C 197.597656 129.921875 197.832031 130.160156 198.042969 130.425781 C 198.25 130.695312 198.429688 130.980469 198.578125 131.289062 C 198.726562 131.597656 198.839844 131.917969 198.917969 132.253906 C 199 132.589844 199.042969 132.929688 199.050781 133.273438 C 199.058594 133.617188 199.027344 133.960938 198.964844 134.296875 L 196.515625 147.050781 C 196.363281 147.839844 196.089844 148.574219 195.695312 149.261719 C 195.300781 149.949219 194.804688 150.546875 194.210938 151.058594 C 193.617188 151.566406 192.957031 151.953125 192.234375 152.222656 C 191.511719 152.496094 190.769531 152.628906 190 152.628906 L 158.070312 152.628906 C 157.300781 152.628906 156.558594 152.765625 155.835938 153.035156 C 155.113281 153.304688 154.453125 153.691406 153.859375 154.203125 C 153.265625 154.710938 152.769531 155.308594 152.375 155.996094 C 151.980469 156.683594 151.707031 157.417969 151.554688 158.207031 Z M 151.554688 158.207031 " fill-opacity="1" fill-rule="nonzero"/><path fill="#006217" d="M 234.3125 158.207031 L 233.355469 163.183594 C 233.292969 163.523438 233.261719 163.863281 233.269531 164.207031 C 233.277344 164.554688 233.320312 164.894531 233.402344 165.226562 C 233.480469 165.5625 233.59375 165.882812 233.742188 166.191406 C 233.890625 166.5 234.070312 166.789062 234.277344 167.054688 C 234.488281 167.320312 234.722656 167.5625 234.980469 167.773438 C 235.242188 167.984375 235.519531 168.164062 235.816406 168.3125 C 236.117188 168.460938 236.425781 168.570312 236.75 168.648438 C 237.070312 168.722656 237.394531 168.761719 237.726562 168.761719 L 264.382812 168.761719 C 264.714844 168.761719 265.039062 168.800781 265.359375 168.875 C 265.683594 168.949219 265.992188 169.0625 266.289062 169.210938 C 266.589844 169.355469 266.867188 169.539062 267.125 169.75 C 267.386719 169.960938 267.621094 170.203125 267.828125 170.46875 C 268.039062 170.734375 268.214844 171.023438 268.363281 171.332031 C 268.511719 171.640625 268.625 171.960938 268.703125 172.292969 C 268.78125 172.628906 268.828125 172.96875 268.832031 173.3125 C 268.839844 173.65625 268.8125 174 268.746094 174.335938 L 266.273438 187.09375 C 266.121094 187.882812 265.84375 188.617188 265.449219 189.304688 C 265.050781 189.992188 264.558594 190.589844 263.960938 191.097656 C 263.367188 191.605469 262.710938 191.996094 261.988281 192.265625 C 261.261719 192.535156 260.519531 192.671875 259.75 192.671875 L 233.261719 192.671875 C 232.492188 192.671875 231.75 192.804688 231.023438 193.074219 C 230.300781 193.34375 229.644531 193.734375 229.046875 194.242188 C 228.453125 194.75 227.960938 195.347656 227.5625 196.035156 C 227.167969 196.722656 226.890625 197.460938 226.738281 198.246094 L 223.074219 217.179688 C 222.921875 217.96875 222.648438 218.703125 222.25 219.390625 C 221.855469 220.078125 221.359375 220.675781 220.765625 221.183594 C 220.171875 221.691406 219.511719 222.082031 218.789062 222.351562 C 218.066406 222.621094 217.320312 222.757812 216.550781 222.757812 L 197.121094 222.757812 C 196.792969 222.757812 196.464844 222.71875 196.144531 222.644531 C 195.820312 222.566406 195.511719 222.457031 195.214844 222.308594 C 194.914062 222.160156 194.636719 221.980469 194.375 221.769531 C 194.113281 221.554688 193.878906 221.316406 193.671875 221.050781 C 193.460938 220.78125 193.28125 220.496094 193.136719 220.1875 C 192.988281 219.878906 192.871094 219.558594 192.792969 219.222656 C 192.710938 218.886719 192.667969 218.546875 192.660156 218.203125 C 192.652344 217.859375 192.679688 217.515625 192.746094 217.179688 L 208.597656 134.296875 C 208.746094 133.511719 209.019531 132.773438 209.414062 132.085938 C 209.808594 131.398438 210.304688 130.800781 210.898438 130.292969 C 211.492188 129.785156 212.148438 129.394531 212.871094 129.125 C 213.59375 128.855469 214.339844 128.71875 215.105469 128.71875 L 277.351562 128.71875 C 277.683594 128.71875 278.007812 128.757812 278.328125 128.832031 C 278.652344 128.910156 278.960938 129.019531 279.261719 129.167969 C 279.558594 129.316406 279.835938 129.496094 280.097656 129.707031 C 280.355469 129.921875 280.589844 130.160156 280.800781 130.425781 C 281.011719 130.695312 281.1875 130.980469 281.335938 131.289062 C 281.484375 131.597656 281.597656 131.917969 281.679688 132.253906 C 281.757812 132.589844 281.800781 132.929688 281.808594 133.273438 C 281.816406 133.617188 281.789062 133.960938 281.722656 134.296875 L 279.273438 147.050781 C 279.121094 147.839844 278.847656 148.574219 278.453125 149.261719 C 278.058594 149.949219 277.5625 150.546875 276.96875 151.058594 C 276.375 151.566406 275.71875 151.953125 274.996094 152.222656 C 274.273438 152.496094 273.527344 152.628906 272.761719 152.628906 L 240.828125 152.628906 C 240.0625 152.628906 239.316406 152.765625 238.59375 153.035156 C 237.871094 153.304688 237.210938 153.691406 236.617188 154.203125 C 236.023438 154.710938 235.53125 155.308594 235.136719 155.996094 C 234.738281 156.683594 234.464844 157.417969 234.3125 158.207031 Z M 234.3125 158.207031 " fill-opacity="1" fill-rule="nonzero"/><path fill="#006217" d="M 297.867188 128.71875 L 317.339844 128.71875 C 317.667969 128.71875 317.996094 128.757812 318.316406 128.832031 C 318.640625 128.910156 318.949219 129.019531 319.246094 129.167969 C 319.546875 129.316406 319.824219 129.496094 320.085938 129.707031 C 320.34375 129.921875 320.578125 130.160156 320.789062 130.425781 C 320.996094 130.695312 321.175781 130.980469 321.324219 131.289062 C 321.472656 131.597656 321.585938 131.917969 321.667969 132.253906 C 321.746094 132.589844 321.789062 132.929688 321.796875 133.273438 C 321.804688 133.617188 321.777344 133.960938 321.710938 134.296875 L 305.824219 217.179688 C 305.671875 217.964844 305.398438 218.703125 305.003906 219.390625 C 304.609375 220.078125 304.113281 220.675781 303.519531 221.183594 C 302.925781 221.691406 302.269531 222.082031 301.546875 222.351562 C 300.824219 222.621094 300.078125 222.757812 299.3125 222.757812 L 279.882812 222.757812 C 279.550781 222.757812 279.226562 222.71875 278.902344 222.644531 C 278.582031 222.566406 278.269531 222.457031 277.972656 222.308594 C 277.675781 222.160156 277.394531 221.980469 277.132812 221.769531 C 276.875 221.554688 276.640625 221.316406 276.429688 221.050781 C 276.222656 220.78125 276.042969 220.496094 275.894531 220.1875 C 275.746094 219.878906 275.632812 219.558594 275.550781 219.222656 C 275.472656 218.886719 275.429688 218.546875 275.421875 218.203125 C 275.414062 217.859375 275.441406 217.515625 275.503906 217.179688 L 291.355469 134.296875 C 291.507812 133.511719 291.78125 132.773438 292.175781 132.085938 C 292.570312 131.398438 293.0625 130.800781 293.65625 130.292969 C 294.25 129.785156 294.910156 129.394531 295.632812 129.125 C 296.355469 128.855469 297.097656 128.71875 297.867188 128.71875 Z M 297.867188 128.71875 " fill-opacity="1" fill-rule="nonzero"/><path fill="#006217" d="M 365.128906 224.671875 C 360.191406 224.265625 355.601562 223.296875 351.359375 221.765625 C 348.523438 220.738281 344.109375 218.527344 341.585938 216.824219 C 338.4375 214.695312 335.691406 212.199219 333.351562 209.339844 C 331.398438 206.953125 328.796875 202.609375 327.601562 199.726562 C 326.15625 196.238281 325.207031 192.503906 324.75 188.523438 C 324.394531 185.40625 324.40625 180.296875 324.660156 177.167969 C 325.203125 170.539062 326.707031 164.394531 329.179688 158.730469 C 330.425781 155.875 332.929688 151.484375 334.730469 148.96875 C 338.167969 144.167969 342.320312 140.078125 347.183594 136.695312 C 349.6875 134.957031 354 132.558594 356.777344 131.359375 C 362.625 128.835938 368.96875 127.3125 375.800781 126.789062 C 378.796875 126.5625 383.679688 126.558594 386.671875 126.8125 C 391.128906 127.195312 395.296875 128.050781 399.179688 129.386719 C 402.035156 130.371094 406.480469 132.511719 408.996094 134.226562 C 411.730469 136.085938 414.085938 138.25 416.066406 140.71875 C 417.992188 143.121094 417.242188 146.953125 414.875 148.890625 L 401.59375 159.746094 C 399.226562 161.683594 396.15625 160.957031 394.121094 158.65625 C 391.527344 155.71875 388.390625 153.789062 384.71875 152.867188 C 381.804688 152.132812 376.851562 152.148438 373.921875 152.808594 C 373.132812 152.984375 372.363281 153.203125 371.609375 153.460938 C 368.757812 154.433594 364.5625 157.191406 362.476562 159.445312 C 361.964844 160.003906 361.472656 160.589844 361.003906 161.203125 C 359.136719 163.65625 356.964844 168.289062 356.167969 171.3125 C 355.839844 172.558594 355.582031 173.847656 355.390625 175.179688 C 354.949219 178.285156 354.894531 183.453125 355.675781 186.476562 C 355.964844 187.605469 356.351562 188.675781 356.835938 189.679688 C 358.175781 192.476562 361.835938 196.085938 364.554688 197.390625 C 365.675781 197.925781 366.871094 198.347656 368.140625 198.648438 C 371.066406 199.347656 376.019531 199.324219 378.9375 198.605469 C 382.84375 197.640625 386.46875 195.597656 389.816406 192.472656 C 392.054688 190.378906 395.328125 190.117188 397.503906 192.289062 L 407.53125 202.296875 C 409.703125 204.464844 409.949219 208.226562 407.835938 210.457031 C 404.921875 213.535156 401.816406 216.082031 398.523438 218.09375 C 395.929688 219.679688 391.398438 221.617188 388.511719 222.480469 C 384.652344 223.632812 380.480469 224.371094 376.003906 224.695312 C 373.003906 224.914062 368.125 224.917969 365.128906 224.671875 Z M 365.128906 224.671875 " fill-opacity="1" fill-rule="nonzero"/><path fill="#006217" d="M 433.011719 128.71875 L 463.371094 128.71875 L 445.34375 222.757812 L 415.027344 222.757812 Z M 433.011719 128.71875 " fill-opacity="1" fill-rule="nonzero"/><path fill="#006217" d="M 520.125 206.359375 L 496.699219 206.359375 C 495.871094 206.359375 495.058594 206.46875 494.257812 206.695312 C 493.460938 206.917969 492.703125 207.246094 491.988281 207.679688 C 491.273438 208.113281 490.621094 208.636719 490.039062 209.246094 C 489.453125 209.859375 488.957031 210.539062 488.542969 211.289062 L 484.953125 217.824219 C 484.542969 218.574219 484.042969 219.253906 483.460938 219.867188 C 482.875 220.480469 482.226562 221 481.511719 221.433594 C 480.792969 221.867188 480.035156 222.195312 479.238281 222.421875 C 478.441406 222.644531 477.625 222.757812 476.800781 222.757812 L 455.667969 222.757812 C 455.125 222.757812 454.617188 222.613281 454.148438 222.320312 C 453.679688 222.03125 453.3125 221.636719 453.050781 221.136719 C 452.789062 220.636719 452.667969 220.101562 452.6875 219.535156 C 452.703125 218.964844 452.859375 218.441406 453.152344 217.960938 L 504.65625 133.515625 C 505.105469 132.78125 505.632812 132.117188 506.242188 131.519531 C 506.851562 130.925781 507.519531 130.417969 508.253906 130 C 508.984375 129.578125 509.753906 129.261719 510.5625 129.042969 C 511.371094 128.828125 512.191406 128.71875 513.023438 128.71875 L 531.945312 128.71875 C 532.71875 128.71875 533.472656 128.851562 534.203125 129.117188 C 534.9375 129.386719 535.605469 129.769531 536.214844 130.269531 C 536.820312 130.773438 537.332031 131.367188 537.75 132.046875 C 538.167969 132.730469 538.464844 133.46875 538.644531 134.253906 L 557.472656 217.222656 C 557.550781 217.550781 557.589844 217.886719 557.589844 218.226562 C 557.59375 218.566406 557.558594 218.902344 557.488281 219.230469 C 557.417969 219.5625 557.3125 219.882812 557.175781 220.1875 C 557.035156 220.496094 556.863281 220.78125 556.664062 221.046875 C 556.460938 221.316406 556.234375 221.554688 555.980469 221.765625 C 555.726562 221.980469 555.457031 222.160156 555.164062 222.308594 C 554.871094 222.453125 554.566406 222.566406 554.25 222.644531 C 553.933594 222.71875 553.613281 222.757812 553.289062 222.757812 L 533.941406 222.757812 C 533.179688 222.757812 532.4375 222.621094 531.71875 222.347656 C 531 222.078125 530.34375 221.6875 529.757812 221.175781 C 529.167969 220.664062 528.679688 220.066406 528.292969 219.378906 C 527.90625 218.6875 527.640625 217.949219 527.5 217.164062 L 526.566406 211.949219 C 526.425781 211.164062 526.164062 210.425781 525.777344 209.738281 C 525.386719 209.046875 524.898438 208.449219 524.3125 207.9375 C 523.722656 207.425781 523.070312 207.035156 522.351562 206.765625 C 521.632812 206.492188 520.890625 206.359375 520.125 206.359375 Z M 520.296875 177.925781 L 517.953125 165.0625 C 517.875 164.628906 517.683594 164.257812 517.382812 163.949219 C 517.082031 163.640625 516.722656 163.449219 516.308594 163.375 C 515.890625 163.304688 515.492188 163.359375 515.109375 163.550781 C 514.730469 163.738281 514.433594 164.023438 514.222656 164.40625 L 506.425781 178.582031 C 506.289062 178.835938 506.183594 179.097656 506.113281 179.378906 C 506.042969 179.65625 506.007812 179.941406 506.007812 180.230469 C 506.007812 180.515625 506.042969 180.800781 506.113281 181.078125 C 506.1875 181.359375 506.292969 181.621094 506.429688 181.871094 C 506.566406 182.121094 506.734375 182.347656 506.929688 182.554688 C 507.125 182.757812 507.34375 182.929688 507.582031 183.074219 C 507.820312 183.21875 508.074219 183.328125 508.339844 183.402344 C 508.609375 183.476562 508.878906 183.515625 509.15625 183.515625 L 515.875 183.515625 C 516.203125 183.515625 516.53125 183.476562 516.855469 183.402344 C 517.179688 183.328125 517.492188 183.214844 517.789062 183.066406 C 518.089844 182.921875 518.371094 182.742188 518.632812 182.527344 C 518.894531 182.316406 519.132812 182.078125 519.34375 181.808594 C 519.554688 181.542969 519.734375 181.253906 519.886719 180.945312 C 520.035156 180.636719 520.152344 180.316406 520.234375 179.980469 C 520.316406 179.644531 520.363281 179.304688 520.375 178.957031 C 520.386719 178.609375 520.359375 178.269531 520.296875 177.925781 Z M 520.296875 177.925781 " fill-opacity="1" fill-rule="nonzero"/><path fill="#006217" d="M 587.007812 128.71875 L 606.480469 128.71875 C 606.8125 128.71875 607.136719 128.757812 607.460938 128.832031 C 607.78125 128.910156 608.09375 129.019531 608.390625 129.167969 C 608.6875 129.316406 608.96875 129.496094 609.226562 129.707031 C 609.488281 129.921875 609.722656 130.160156 609.933594 130.425781 C 610.140625 130.695312 610.320312 130.980469 610.46875 131.289062 C 610.617188 131.597656 610.730469 131.917969 610.8125 132.253906 C 610.890625 132.589844 610.9375 132.929688 610.945312 133.273438 C 610.953125 133.617188 610.921875 133.960938 610.859375 134.296875 L 599.722656 192.601562 C 599.660156 192.941406 599.628906 193.28125 599.636719 193.628906 C 599.648438 193.972656 599.691406 194.3125 599.769531 194.648438 C 599.851562 194.980469 599.964844 195.304688 600.113281 195.613281 C 600.261719 195.917969 600.441406 196.207031 600.648438 196.472656 C 600.859375 196.742188 601.09375 196.980469 601.355469 197.191406 C 601.613281 197.40625 601.894531 197.585938 602.191406 197.734375 C 602.488281 197.878906 602.800781 197.992188 603.121094 198.066406 C 603.445312 198.144531 603.769531 198.179688 604.101562 198.179688 L 633.863281 198.179688 C 634.191406 198.179688 634.519531 198.21875 634.839844 198.292969 C 635.160156 198.371094 635.472656 198.480469 635.769531 198.628906 C 636.066406 198.777344 636.347656 198.957031 636.605469 199.167969 C 636.863281 199.382812 637.097656 199.621094 637.308594 199.886719 C 637.515625 200.15625 637.695312 200.441406 637.84375 200.75 C 637.988281 201.058594 638.101562 201.378906 638.183594 201.714844 C 638.261719 202.046875 638.304688 202.386719 638.3125 202.734375 C 638.320312 203.078125 638.289062 203.417969 638.226562 203.757812 L 635.625 217.179688 C 635.472656 217.96875 635.195312 218.703125 634.800781 219.390625 C 634.402344 220.078125 633.90625 220.675781 633.3125 221.183594 C 632.71875 221.695312 632.0625 222.082031 631.335938 222.351562 C 630.613281 222.621094 629.867188 222.757812 629.101562 222.757812 L 569.023438 222.757812 C 568.695312 222.757812 568.367188 222.71875 568.046875 222.644531 C 567.722656 222.566406 567.414062 222.457031 567.113281 222.308594 C 566.816406 222.160156 566.539062 221.980469 566.277344 221.769531 C 566.015625 221.554688 565.78125 221.316406 565.574219 221.050781 C 565.363281 220.78125 565.183594 220.496094 565.035156 220.1875 C 564.890625 219.878906 564.773438 219.558594 564.695312 219.222656 C 564.613281 218.886719 564.570312 218.546875 564.5625 218.203125 C 564.554688 217.859375 564.582031 217.515625 564.648438 217.179688 L 580.5 134.296875 C 580.648438 133.511719 580.921875 132.773438 581.316406 132.085938 C 581.710938 131.398438 582.207031 130.800781 582.800781 130.292969 C 583.394531 129.785156 584.050781 129.394531 584.773438 129.125 C 585.496094 128.855469 586.242188 128.71875 587.007812 128.71875 Z M 587.007812 128.71875 " fill-opacity="1" fill-rule="nonzero"/><path fill="#006217" d="M 675.441406 137.488281 L 669.507812 137.488281 C 669.085938 137.488281 668.714844 137.621094 668.386719 137.882812 C 668.0625 138.148438 667.859375 138.484375 667.777344 138.890625 L 664.242188 156.382812 C 664.160156 156.789062 663.957031 157.125 663.632812 157.390625 C 663.304688 157.652344 662.933594 157.785156 662.511719 157.785156 L 654.449219 157.785156 C 654.269531 157.785156 654.101562 157.746094 653.941406 157.671875 C 653.78125 157.597656 653.644531 157.492188 653.53125 157.355469 C 653.417969 157.21875 653.339844 157.066406 653.296875 156.898438 C 653.253906 156.726562 653.246094 156.554688 653.28125 156.382812 L 656.816406 138.890625 C 656.851562 138.71875 656.847656 138.546875 656.804688 138.378906 C 656.757812 138.207031 656.683594 138.054688 656.570312 137.917969 C 656.457031 137.78125 656.320312 137.675781 656.15625 137.601562 C 655.996094 137.527344 655.828125 137.488281 655.648438 137.488281 L 649.738281 137.488281 C 649.558594 137.488281 649.390625 137.453125 649.230469 137.375 C 649.070312 137.300781 648.933594 137.195312 648.820312 137.0625 C 648.707031 136.925781 648.628906 136.773438 648.585938 136.601562 C 648.542969 136.429688 648.539062 136.261719 648.574219 136.089844 L 649.566406 131.1875 C 649.648438 130.78125 649.855469 130.445312 650.179688 130.183594 C 650.507812 129.917969 650.878906 129.785156 651.300781 129.785156 L 677.027344 129.785156 C 677.207031 129.785156 677.375 129.824219 677.535156 129.898438 C 677.695312 129.972656 677.832031 130.078125 677.945312 130.214844 C 678.058594 130.351562 678.136719 130.503906 678.179688 130.675781 C 678.222656 130.84375 678.222656 131.015625 678.1875 131.1875 L 677.179688 136.089844 C 677.097656 136.496094 676.890625 136.832031 676.566406 137.09375 C 676.238281 137.359375 675.863281 137.488281 675.441406 137.488281 Z M 718.308594 131.1875 L 713.3125 156.382812 C 713.234375 156.789062 713.03125 157.125 712.707031 157.386719 C 712.378906 157.652344 712.007812 157.785156 711.585938 157.785156 L 704.566406 157.785156 C 704.386719 157.785156 704.21875 157.746094 704.054688 157.671875 C 703.894531 157.597656 703.753906 157.492188 703.640625 157.355469 C 703.527344 157.21875 703.449219 157.066406 703.402344 156.894531 C 703.359375 156.726562 703.351562 156.554688 703.386719 156.378906 L 705.113281 147.378906 C 705.148438 147.191406 705.078125 147.0625 704.90625 146.984375 C 704.734375 146.902344 704.585938 146.9375 704.46875 147.082031 L 698.550781 154.265625 C 698.261719 154.613281 697.910156 154.886719 697.496094 155.082031 C 697.082031 155.277344 696.644531 155.371094 696.1875 155.371094 L 694.082031 155.371094 C 693.636719 155.371094 693.226562 155.257812 692.847656 155.027344 C 692.472656 154.796875 692.183594 154.484375 691.984375 154.09375 L 688.632812 147.453125 C 688.53125 147.246094 688.359375 147.15625 688.125 147.1875 C 687.894531 147.21875 687.753906 147.347656 687.707031 147.574219 L 685.9375 156.382812 C 685.855469 156.789062 685.652344 157.125 685.328125 157.390625 C 685 157.652344 684.628906 157.785156 684.207031 157.785156 L 677.1875 157.785156 C 677.007812 157.785156 676.839844 157.746094 676.679688 157.671875 C 676.515625 157.597656 676.378906 157.492188 676.265625 157.355469 C 676.15625 157.21875 676.078125 157.066406 676.035156 156.898438 C 675.992188 156.726562 675.988281 156.554688 676.019531 156.382812 L 681.136719 131.1875 C 681.21875 130.78125 681.425781 130.445312 681.75 130.183594 C 682.074219 129.917969 682.449219 129.785156 682.871094 129.785156 L 688.734375 129.785156 C 689.179688 129.785156 689.589844 129.902344 689.964844 130.136719 C 690.339844 130.367188 690.625 130.679688 690.816406 131.074219 L 696.597656 142.878906 C 696.667969 143.019531 696.765625 143.132812 696.894531 143.226562 C 697.023438 143.316406 697.167969 143.371094 697.324219 143.390625 C 697.480469 143.410156 697.632812 143.386719 697.78125 143.332031 C 697.925781 143.273438 698.050781 143.183594 698.152344 143.0625 L 708.355469 130.886719 C 708.644531 130.539062 709 130.269531 709.414062 130.074219 C 709.832031 129.882812 710.265625 129.785156 710.726562 129.785156 L 717.136719 129.785156 C 717.3125 129.785156 717.484375 129.824219 717.644531 129.898438 C 717.804688 129.972656 717.941406 130.078125 718.054688 130.214844 C 718.171875 130.351562 718.25 130.503906 718.292969 130.675781 C 718.335938 130.84375 718.339844 131.015625 718.308594 131.1875 Z M 718.308594 131.1875 " fill-opacity="1" fill-rule="nonzero"/><path fill="#006217" d="M 943.121094 140.894531 L 749.761719 111.011719 C 744.886719 110.25 741.28125 115.3125 744.285156 118.703125 L 788.773438 169.046875 C 789.878906 170.289062 790.152344 171.972656 789.5 173.515625 L 763.390625 235.734375 C 761.621094 239.925781 766.644531 243.539062 771.023438 241.222656 L 944.542969 149.613281 C 948.882812 147.320312 947.957031 141.640625 943.121094 140.894531 " fill-opacity="1" fill-rule="nonzero"/></svg>